<svg width="42" height="30" viewBox="0 0 42 30" fill="none" xmlns="http://www.w3.org/2000/svg">
<path d="M2.5 3.91177e-06C1.96094 -0.00780809 1.45703 0.277348 1.18359 0.742192C0.910156 1.21094 0.910156 1.78907 1.18359 2.25782C1.45703 2.72266 1.96094 3.00782 2.5 3H39.5C40.0391 3.00782 40.543 2.72266 40.8164 2.25782C41.0898 1.78907 41.0898 1.21094 40.8164 0.742192C40.543 0.277348 40.0391 -0.00780809 39.5 3.91177e-06H2.5ZM2.5 13.5C1.96094 13.4922 1.45703 13.7773 1.18359 14.2422C0.910156 14.7109 0.910156 15.2891 1.18359 15.7578C1.45703 16.2227 1.96094 16.5078 2.5 16.5H39.5C40.0391 16.5078 40.543 16.2227 40.8164 15.7578C41.0898 15.2891 41.0898 14.7109 40.8164 14.2422C40.543 13.7773 40.0391 13.4922 39.5 13.5H2.5ZM2.5 27C1.96094 26.9922 1.45703 27.2773 1.18359 27.7422C0.910156 28.2109 0.910156 28.7891 1.18359 29.2578C1.45703 29.7227 1.96094 30.0078 2.5 30H39.5C40.0391 30.0078 40.543 29.7227 40.8164 29.2578C41.0898 28.7891 41.0898 28.2109 40.8164 27.7422C40.543 27.2773 40.0391 26.9922 39.5 27H2.5Z" fill="white"/>
</svg>
