<svg width="36" height="36" viewBox="0 0 36 36" fill="none" xmlns="http://www.w3.org/2000/svg">
<path d="M33.4844 0.97656C33.0898 0.988279 32.7148 1.15234 32.4375 1.4375L18 15.8789L3.5625 1.4375C3.27734 1.14844 2.89063 0.984373 2.48438 0.984373C1.875 0.984373 1.32422 1.35547 1.09375 1.92187C0.863282 2.48828 1 3.13672 1.4375 3.5625L15.8789 18L1.4375 32.4375C1.04688 32.8164 0.890626 33.375 1.02735 33.8984C1.16406 34.4258 1.57422 34.8359 2.10156 34.9727C2.625 35.1094 3.18359 34.9531 3.5625 34.5625L18 20.1211L32.4375 34.5625C32.8164 34.9531 33.375 35.1094 33.8984 34.9727C34.4258 34.8359 34.8359 34.4258 34.9727 33.8984C35.1094 33.375 34.9531 32.8164 34.5625 32.4375L20.1211 18L34.5625 3.5625C35.0078 3.13281 35.1445 2.47265 34.9062 1.90234C34.668 1.33203 34.1055 0.964842 33.4844 0.97656Z" fill="white"/>
</svg>
