<svg width="190" height="37" viewBox="0 0 190 37" fill="none" xmlns="http://www.w3.org/2000/svg">
<path d="M12.0347 36.2031H4.8774V18.354H0V12.5449H4.8774V8.41183C4.8774 3.51361 7.03241 0 14.1741 0C15.6837 0 18.0573 0.301911 18.0573 0.301911V5.69985H15.564C13.029 5.69985 12.0347 6.47024 12.0347 8.60443V12.5449H17.9584L17.4327 18.354H12.0347V36.2031ZM28.4628 12.0816C28.3587 12.0816 28.2494 12.0868 28.1453 12.0868C21.5085 12.0868 18.4685 17.0787 18.4685 24.1684C18.4685 33.0955 22.409 36.6716 28.1973 36.6716C31.5079 36.6716 33.6837 35.2766 35.0059 32.6791V36.2083H41.8145V12.5501H35.0059V16.1886C33.9284 13.8462 31.6901 12.1128 28.4628 12.0816ZM30.1962 17.6721C32.9862 17.6721 34.6571 19.6189 34.6571 22.9243L34.6623 26.3026C34.6623 28.5305 33.2777 31.1383 30.1962 31.1383C25.4541 31.1383 25.579 26.0163 25.579 24.3089C25.579 18.5727 28.1036 17.6721 30.1962 17.6721ZM44.5681 24.3818C44.5681 21.5085 44.4328 12.1024 56.6861 12.1024C61.6052 12.1024 63.6613 13.6692 63.6613 13.6692L62.0112 18.7913C62.0112 18.7913 59.9603 17.6617 57.2847 17.6617C53.8596 17.6617 51.6786 19.645 51.6786 23.1377L51.6838 25.6415C51.6838 28.9989 53.792 31.2372 57.2951 31.2372C59.7312 31.2372 61.9747 30.0973 61.9747 30.0973L63.6196 35.11C63.6196 35.11 61.7405 36.682 56.7226 36.682C45.047 36.6768 44.5681 28.239 44.5681 24.3818ZM103.586 12.0868C110.223 12.0868 113.31 17.0787 113.31 24.1684C113.31 33.0955 109.369 36.6716 103.581 36.6716C100.27 36.6716 97.8239 35.2766 96.5017 32.6791V36.2083L89.7764 36.2031V0.718339L96.913 0.0937002V15.8659C97.9436 13.107 101.327 12.0868 103.586 12.0868ZM101.582 17.6721C98.7921 17.6721 96.913 19.6189 96.913 22.9243L96.9078 26.3026C96.9025 28.5305 98.2091 31.1383 101.582 31.1383C106.324 31.1383 106.199 26.0163 106.199 24.3089C106.199 18.5727 103.675 17.6721 101.582 17.6721ZM76.0448 12.1076C68.5178 12.1076 64.541 16.2146 64.541 23.5073V24.8607C64.541 34.3292 70.1211 36.7653 76.7787 36.7653C83.249 36.7653 86.1744 34.9538 86.1744 34.9538L84.8366 30.1337C84.8366 30.1337 81.3906 31.6016 77.6324 31.6016C73.7336 31.6016 72.0575 30.6074 71.6254 26.8595H86.7417V22.992C86.7469 15.0903 82.2808 12.1076 76.0448 12.1076ZM76.227 16.933C78.8348 16.933 80.5214 18.531 80.4277 22.2372H71.6411C71.792 18.3384 73.6139 16.933 76.227 16.933ZM127.541 12.0764C119.811 12.0764 115.741 16.4333 115.741 24.2413C115.741 34.9538 122.757 36.682 127.557 36.682C134.584 36.682 139.258 32.8977 139.258 24.3402C139.253 15.4338 134.001 12.0764 127.541 12.0764ZM127.442 17.6929C130.841 17.6929 132.19 20.2384 132.19 23.1325V25.6207C132.19 29.1291 130.305 31.1592 127.432 31.1592C124.741 31.1592 122.851 29.2592 122.851 25.6207V23.1325C122.851 19.2493 125.1 17.6929 127.442 17.6929ZM153.474 12.0764C145.744 12.0764 141.674 16.4333 141.674 24.2413C141.674 34.9538 148.69 36.682 153.49 36.682C160.517 36.682 165.191 32.8977 165.191 24.3402C165.186 15.4338 159.934 12.0764 153.474 12.0764ZM153.38 17.6929C156.78 17.6929 158.128 20.2384 158.128 23.1325V25.6207C158.128 29.1291 156.243 31.1592 153.37 31.1592C150.679 31.1592 148.789 29.2592 148.789 25.6207V23.1325C148.789 19.2493 151.038 17.6929 153.38 17.6929ZM167.888 36.2031V0.718339L175.045 0.0937002V23.8769L182.15 12.5449H189.714L182.307 24.2829L190 36.2031H182.416L175.045 24.6317V36.2031H167.888Z" fill="#1877F2"/>
</svg>
